<svg width="36" height="36" viewBox="0 0 36 36" fill="none" xmlns="http://www.w3.org/2000/svg">
<rect width="36" height="36" rx="10" fill="#C1FFFA"/>
<path d="M7.87173 12.9961L17.1249 17.4642C17.3658 17.5791 17.6874 17.6391 18.0056 17.6391C18.3239 17.6391 18.6455 17.5791 18.8859 17.4642L28.1391 12.9961C28.6256 12.7617 28.6256 12.3783 28.1391 12.143L18.8859 7.67484C18.6455 7.56 18.3234 7.5 18.0056 7.5C17.6878 7.5 17.3658 7.56 17.1249 7.67484L7.87173 12.143C7.38516 12.3783 7.38516 12.7608 7.87173 12.9961Z" fill="#1DA599"/>
<path d="M28.139 17.5735C28.139 17.5735 26.4492 16.7588 26.2251 16.6492C26.0011 16.5395 25.9406 16.5456 25.7053 16.6548C25.47 16.764 18.8803 19.9468 18.8803 19.9468C18.6025 20.0668 18.3025 20.1265 18 20.1221C17.6826 20.1221 17.3601 20.0617 17.1197 19.9468C17.1197 19.9468 10.7048 16.8531 10.4039 16.704C10.0781 16.547 9.98436 16.547 9.68765 16.6876L7.85952 17.5679C7.37296 17.8023 7.37296 18.1862 7.85952 18.421L17.1141 22.8892C17.3545 23.004 17.6766 23.064 17.9944 23.064C18.3122 23.064 18.6342 23.004 18.8751 22.8892L28.1283 18.422C28.6256 18.1913 28.6256 17.8088 28.139 17.5735Z" fill="#1DA599"/>
<path d="M28.1391 23.0037C28.1391 23.0037 26.4492 22.189 26.2252 22.0779C26.0011 21.9668 25.9406 21.9743 25.7053 22.0835C25.47 22.1928 18.8859 25.3826 18.8859 25.3826C18.6081 25.5023 18.3081 25.5619 18.0056 25.5575C17.6883 25.5575 17.3658 25.4975 17.1248 25.3826C17.1248 25.3826 10.71 22.2889 10.4095 22.1398C10.0814 21.9809 9.98766 21.9809 9.69282 22.1234L7.86469 23.0037C7.37766 23.2381 7.37766 23.6215 7.86469 23.8568L17.1178 28.325C17.3583 28.445 17.6803 28.4998 17.9981 28.4998C18.3159 28.4998 18.638 28.4398 18.8784 28.325L28.1334 23.8592C28.6256 23.6215 28.6256 23.239 28.1391 23.0037Z" fill="#1DA599"/>
</svg>
