<svg width="36" height="36" viewBox="0 0 36 36" fill="none" xmlns="http://www.w3.org/2000/svg">
<rect width="36" height="36" rx="10" fill="#C1FFFA"/>
<path d="M26.16 18.7302C26.825 18.0661 27.3323 17.2609 27.6442 16.3743C27.9561 15.4878 28.0647 14.5424 27.9619 13.6082C27.8592 12.674 27.5477 11.7748 27.0506 10.9772C26.5535 10.1796 25.8835 9.5039 25.09 9.00017C23.08 7.67017 20.39 7.66017 18.36 8.97017C16.6 10.1002 15.63 11.8602 15.46 13.6802C15.33 15.0002 14.83 16.2302 13.91 17.1502L13.88 17.1802C12.72 18.3402 12.72 20.1102 13.81 21.1902L14.8 22.1802C15.3239 22.7037 16.0343 22.9979 16.775 22.9979C17.5157 22.9979 18.2261 22.7037 18.75 22.1802C19.72 21.2102 21 20.6802 22.39 20.5302C23.76 20.3802 25.1 19.7802 26.16 18.7302ZM12.26 25.8602C12.53 26.4202 12.44 27.1002 11.97 27.5602C11.7664 27.7668 11.507 27.9095 11.2235 27.9708C10.94 28.0321 10.6448 28.0094 10.374 27.9053C10.1033 27.8013 9.8688 27.6205 9.69933 27.3851C9.52986 27.1497 9.43278 26.8699 9.42 26.5802C9.13023 26.5674 8.85049 26.4703 8.6151 26.3008C8.3797 26.1314 8.19889 25.8969 8.09484 25.6261C7.99079 25.3554 7.96802 25.0602 8.02934 24.7767C8.09065 24.4932 8.23337 24.2337 8.44 24.0302C8.9 23.5702 9.59 23.4702 10.14 23.7402L12.62 21.3102C12.76 21.5002 12.92 21.7202 13.1 21.9002L14.09 22.8902C14.3 23.0902 14.5 23.2602 14.76 23.4102L12.26 25.8602Z" fill="#1DA599"/>
</svg>
