<svg width="32" height="32" viewBox="0 0 32 32" fill="none" xmlns="http://www.w3.org/2000/svg">
<rect width="32" height="31.3919" rx="10" fill="#C1FFFA"/>
<path d="M8 6H24C24.55 6 25.021 6.196 25.413 6.588C25.805 6.98 26.0007 7.45067 26 8V19C26 19.55 25.804 20.021 25.412 20.413C25.02 20.805 24.5493 21.0007 24 21H20V24.375C20 24.7583 19.8417 25.046 19.525 25.238C19.2083 25.43 18.8833 25.4423 18.55 25.275L16.45 24.225C16.3167 24.1417 16.1667 24.1 16 24.1C15.8333 24.1 15.6833 24.1417 15.55 24.225L13.45 25.275C13.1167 25.4417 12.7917 25.4293 12.475 25.238C12.1583 25.0467 12 24.759 12 24.375V21H8C7.45 21 6.979 20.804 6.587 20.412C6.195 20.02 5.99934 19.5493 6 19V8C6 7.45 6.196 6.979 6.588 6.587C6.98 6.195 7.45067 5.99934 8 6ZM8 17H24V14H8V17Z" fill="#1DA599"/>
</svg>
