<svg width="36" height="36" viewBox="0 0 36 36" fill="none" xmlns="http://www.w3.org/2000/svg">
<rect width="36" height="36" rx="10" fill="#C1FFFA"/>
<path d="M18 11.61L15.24 14.35L18.55 17.66L17.49 18.72L14.18 15.41L12.41 17.18L15.72 20.49L14.66 21.55L11.35 18.24L9.35 20.24C9.03219 20.5478 8.82544 20.9524 8.7621 21.3903C8.69877 21.8282 8.78243 22.2747 9 22.66L10 24.55L7.75 26.84L9.16 28.25L11.45 26L13.34 27C13.6448 27.1728 13.9896 27.2624 14.34 27.26C14.6039 27.2602 14.8653 27.2082 15.109 27.1069C15.3527 27.0057 15.5739 26.8572 15.76 26.67L24.39 18L18 11.61ZM25.8 15.2L24.01 13.4L25.43 11.99L26.84 13.4L28.25 11.99L24.01 7.75L22.6 9.16L24.01 10.58L22.6 11.99L20.8 10.2L19.06 8.45L17.65 9.87L18.68 10.9V10.91L25.09 17.32H25.1L26.13 18.35L27.55 16.94L25.81 15.2H25.8Z" fill="#1DA599"/>
</svg>
