<svg width="36" height="36" viewBox="0 0 36 36" fill="none" xmlns="http://www.w3.org/2000/svg">
<rect width="36" height="36" rx="10" fill="#C1FFFA"/>
<path d="M17.25 10.5C17.0511 10.5 16.8603 10.579 16.7197 10.7197C16.579 10.8603 16.5 11.0511 16.5 11.25C16.5 11.4489 16.579 11.6397 16.7197 11.7803C16.8603 11.921 17.0511 12 17.25 12H18.75C18.9489 12 19.1397 11.921 19.2803 11.7803C19.421 11.6397 19.5 11.4489 19.5 11.25C19.5 11.0511 19.421 10.8603 19.2803 10.7197C19.1397 10.579 18.9489 10.5 18.75 10.5H17.25ZM13.35 7.5C12.7787 7.5 12.2131 7.61252 11.6853 7.83112C11.1576 8.04973 10.678 8.37015 10.2741 8.77409C9.4583 9.58987 9 10.6963 9 11.85V15H8.25C8.05109 15 7.86032 15.079 7.71967 15.2197C7.57902 15.3603 7.5 15.5511 7.5 15.75C7.5 15.9489 7.57902 16.1397 7.71967 16.2803C7.86032 16.421 8.05109 16.5 8.25 16.5H9V26.55C9 27.0672 9.20545 27.5632 9.57114 27.9289C9.93684 28.2946 10.4328 28.5 10.95 28.5H13.05C13.3061 28.5 13.5596 28.4496 13.7962 28.3516C14.0328 28.2536 14.2478 28.1099 14.4289 27.9289C14.6099 27.7478 14.7536 27.5328 14.8516 27.2962C14.9496 27.0596 15 26.8061 15 26.55V25.5H21V26.55C21 27.0672 21.2054 27.5632 21.5711 27.9289C21.9368 28.2946 22.4328 28.5 22.95 28.5H25.05C25.5672 28.5 26.0632 28.2946 26.4289 27.9289C26.7946 27.5632 27 27.0672 27 26.55V16.5H27.75C27.9489 16.5 28.1397 16.421 28.2803 16.2803C28.421 16.1397 28.5 15.9489 28.5 15.75C28.5 15.5511 28.421 15.3603 28.2803 15.2197C28.1397 15.079 27.9489 15 27.75 15H27V11.85C27 10.6963 26.5417 9.58987 25.7259 8.77409C24.9101 7.9583 23.8037 7.5 22.65 7.5H13.35ZM25.5 11.85V18H10.5V11.85C10.5 10.275 11.775 9 13.35 9H22.65C24.225 9 25.5 10.275 25.5 11.85ZM25.5 25.5V26.55C25.5 26.6091 25.4884 26.6676 25.4657 26.7222C25.4431 26.7768 25.41 26.8264 25.3682 26.8682C25.3264 26.91 25.2768 26.9431 25.2222 26.9657C25.1676 26.9884 25.1091 27 25.05 27H22.95C22.8909 27 22.8324 26.9884 22.7778 26.9657C22.7232 26.9431 22.6736 26.91 22.6318 26.8682C22.59 26.8264 22.5569 26.7768 22.5343 26.7222C22.5116 26.6676 22.5 26.6091 22.5 26.55V25.5H25.5ZM13.5 25.5V26.55C13.5 26.6091 13.4884 26.6676 13.4657 26.7222C13.4431 26.7768 13.41 26.8264 13.3682 26.8682C13.3264 26.91 13.2768 26.9431 13.2222 26.9657C13.1676 26.9884 13.1091 27 13.05 27H10.95C10.8909 27 10.8324 26.9884 10.7778 26.9657C10.7232 26.9431 10.6736 26.91 10.6318 26.8682C10.59 26.8264 10.5569 26.7768 10.5343 26.7222C10.5116 26.6676 10.5 26.6091 10.5 26.55V25.5H13.5ZM15.75 21.375C15.75 21.6734 15.6315 21.9595 15.4205 22.1705C15.2095 22.3815 14.9234 22.5 14.625 22.5C14.3266 22.5 14.0405 22.3815 13.8295 22.1705C13.6185 21.9595 13.5 21.6734 13.5 21.375C13.5 21.0766 13.6185 20.7905 13.8295 20.5795C14.0405 20.3685 14.3266 20.25 14.625 20.25C14.9234 20.25 15.2095 20.3685 15.4205 20.5795C15.6315 20.7905 15.75 21.0766 15.75 21.375ZM21.375 22.5C21.0766 22.5 20.7905 22.3815 20.5795 22.1705C20.3685 21.9595 20.25 21.6734 20.25 21.375C20.25 21.0766 20.3685 20.7905 20.5795 20.5795C20.7905 20.3685 21.0766 20.25 21.375 20.25C21.6734 20.25 21.9595 20.3685 22.1705 20.5795C22.3815 20.7905 22.5 21.0766 22.5 21.375C22.5 21.6734 22.3815 21.9595 22.1705 22.1705C21.9595 22.3815 21.6734 22.5 21.375 22.5Z" fill="#1DA599"/>
</svg>
